<svg width="18" height="18" viewBox="0 0 18 18" fill="none" xmlns="http://www.w3.org/2000/svg">
<path d="M9 0C4.0372 0 0 4.0372 0 9C0 13.9628 4.0372 18 9 18C13.9628 18 18 13.9628 18 9C18 4.0372 13.9628 0 9 0ZM12.9375 9.74995H9.74995V12.9375C9.74995 13.3515 9.41405 13.6875 9 13.6875C8.58595 13.6875 8.25005 13.3515 8.25005 12.9375V9.74995H5.0625C4.64845 9.74995 4.31255 9.41405 4.31255 9C4.31255 8.58595 4.64845 8.25005 5.0625 8.25005H8.25005V5.0625C8.25005 4.64845 8.58595 4.31255 9 4.31255C9.41405 4.31255 9.74995 4.64845 9.74995 5.0625V8.25005H12.9375C13.3515 8.25005 13.6875 8.58595 13.6875 9C13.6875 9.41405 13.3515 9.74995 12.9375 9.74995Z" fill="white"/>
</svg>
