<svg width="33" height="33" viewBox="0 0 33 33" fill="none" xmlns="http://www.w3.org/2000/svg">
<path d="M16.5 6.1875C13.7688 6.1875 11.3961 7.46448 9.7002 9.3457C9.5592 9.32959 9.43433 9.28125 9.28125 9.28125C7.01331 9.28125 5.15625 11.1383 5.15625 13.4062C3.3717 14.4939 2.0625 16.3308 2.0625 18.5625C2.0625 21.9664 4.84607 24.75 8.25 24.75H13.4062V22.6875H8.25C5.96191 22.6875 4.125 20.8506 4.125 18.5625C4.125 16.8505 5.16431 15.3882 6.63867 14.7598L7.34766 14.4697L7.25098 13.6963C7.23084 13.5271 7.21875 13.4304 7.21875 13.4062C7.21875 12.2542 8.12915 11.3438 9.28125 11.3438C9.42627 11.3438 9.5874 11.3639 9.76465 11.4082L10.4092 11.5693L10.7959 11.0537C12.1172 9.35779 14.1797 8.25 16.5 8.25C19.8798 8.25 22.6996 10.5743 23.4932 13.6963L23.6865 14.502L24.5566 14.4697C24.7742 14.4576 24.8225 14.4375 24.75 14.4375C27.0381 14.4375 28.875 16.2744 28.875 18.5625C28.875 20.8506 27.0381 22.6875 24.75 22.6875H19.5938V24.75H24.75C28.1539 24.75 30.9375 21.9664 30.9375 18.5625C30.9375 15.3076 28.3715 12.7013 25.1689 12.4717C23.9081 8.84216 20.5485 6.1875 16.5 6.1875ZM15.4688 18.5625V26.8125H12.375L16.5 30.9375L20.625 26.8125H17.5312V18.5625H15.4688Z" fill="white"/>
</svg>
