<svg width="14" height="7" viewBox="0 0 14 7" fill="none" xmlns="http://www.w3.org/2000/svg">
<path d="M0.142955 0.809104C0.142955 0.704813 0.165414 0.599571 0.211541 0.498965C0.35061 0.19584 0.675242 1.39412e-07 1.0386 1.35499e-07L12.7274 9.64326e-09C13.0908 5.73086e-09 13.4154 0.195839 13.5545 0.498965C13.6935 0.802043 13.6174 1.14782 13.3604 1.37981C13.357 1.3829 13.3535 1.38597 13.35 1.38899L7.49958 6.43405C7.49824 6.43522 7.49687 6.43636 7.49553 6.43753C7.15205 6.72853 6.61397 6.72853 6.27048 6.43753C6.26911 6.43636 6.26774 6.43522 6.26643 6.43405L0.415983 1.38899C0.412481 1.38597 0.409006 1.3829 0.405583 1.37981C0.233947 1.22482 0.142955 1.01899 0.142955 0.809104ZM6.70285 6.02143L6.70285 6.02167L6.70285 6.02143Z" fill="white"/>
</svg>
