<svg width="40" height="36" viewBox="0 0 40 36" fill="none" xmlns="http://www.w3.org/2000/svg">
<circle cx="17" cy="19" r="16" fill="#F8FAFA" stroke="#E8ECEE" stroke-width="1.2"/>
<path fill-rule="evenodd" clip-rule="evenodd" d="M22.2 17.8V21.8L23.8 23.4V24.2H11V23.4L12.6 21.8V17.8C12.6 15.336 13.904 13.288 16.2 12.744V12.2C16.2 11.536 16.736 11 17.4 11C18.064 11 18.6 11.536 18.6 12.2V12.744C20.888 13.288 22.2 15.344 22.2 17.8ZM19 25C19 25.88 18.28 26.6 17.4 26.6C16.512 26.6 15.8 25.88 15.8 25H19Z" fill="#989FA3"/>
<g clip-path="url(#clip0_480_16)">
<rect x="22" width="18" height="18" rx="9" fill="#0D60CE"/>
<path d="M25.54 6.5V5.252H28.036V14H26.656V6.5H25.54ZM30.6713 12.14C31.4393 11.476 32.0433 10.932 32.4833 10.508C32.9313 10.076 33.3033 9.628 33.5993 9.164C33.8953 8.7 34.0433 8.236 34.0433 7.772C34.0433 7.292 33.9273 6.916 33.6953 6.644C33.4713 6.372 33.1153 6.236 32.6273 6.236C32.1553 6.236 31.7873 6.388 31.5233 6.692C31.2673 6.988 31.1313 7.388 31.1153 7.892H29.7953C29.8193 6.98 30.0913 6.284 30.6113 5.804C31.1393 5.316 31.8073 5.072 32.6153 5.072C33.4873 5.072 34.1673 5.312 34.6553 5.792C35.1513 6.272 35.3993 6.912 35.3993 7.712C35.3993 8.288 35.2513 8.844 34.9553 9.38C34.6673 9.908 34.3193 10.384 33.9113 10.808C33.5113 11.224 32.9993 11.708 32.3753 12.26L31.8353 12.74H35.6393V13.88H29.8073V12.884L30.6713 12.14Z" fill="white"/>
</g>
<defs>
<clipPath id="clip0_480_16">
<rect width="18" height="18" fill="white" transform="translate(22)"/>
</clipPath>
</defs>
</svg>
