<svg width="14" height="14" viewBox="0 0 14 14" fill="none" xmlns="http://www.w3.org/2000/svg">
<path fill-rule="evenodd" clip-rule="evenodd" d="M12.4137 13.7237C12.7828 14.0921 13.3674 14.0921 13.7365 13.7237C14.0903 13.3553 14.0903 12.7719 13.7212 12.3882L11.2292 9.90132C11.9983 8.87281 12.4444 7.59868 12.4444 6.21711C12.4444 2.77851 9.64481 0 6.21452 0C2.78423 0 0 2.77851 0 6.21711C0 9.6557 2.78423 12.4342 6.2299 12.4342C7.61432 12.4342 8.89107 11.989 9.92169 11.2215L12.4137 13.7237ZM1.8459 6.23246C1.8459 3.82237 3.79947 1.87281 6.21452 1.87281C8.62956 1.87281 10.5831 3.82237 10.5831 6.23246C10.5831 8.64254 8.62956 10.5921 6.21452 10.5921C3.79947 10.5921 1.8459 8.64254 1.8459 6.23246Z" fill="#A4AFB4"/>
</svg>
