<svg width="26" height="25" viewBox="0 0 26 25" fill="none" xmlns="http://www.w3.org/2000/svg">
<path d="M10.1111 0L9.95062 0.78125L9.34074 3.63582C8.36173 3.99639 7.47901 4.50346 6.67654 5.10817L3.69136 4.14663L2.88889 3.90625L2.47161 4.59736L0.417284 7.90264L0 8.59375L0.609877 9.10457L2.92099 10.9976C2.83673 11.4896 2.7284 11.9817 2.7284 12.5C2.7284 13.0183 2.83673 13.5104 2.92099 14.0024L0.609877 15.8954L0 16.4062L0.417284 17.0974L2.47161 20.4026L2.88889 21.0938L3.69136 20.8534L6.67654 19.8918C7.47901 20.4965 8.36173 21.0036 9.34074 21.3642L9.95062 24.2188L10.1111 25H15.8889L16.0494 24.2188L16.6593 21.3642C17.6383 21.0036 18.521 20.4965 19.3235 19.8918L22.3086 20.8534L23.1111 21.0938L23.5284 20.4026L25.5827 17.0974L26 16.4062L25.3901 15.8954L23.079 14.0024C23.1633 13.5104 23.2716 13.0183 23.2716 12.5C23.2716 11.9817 23.1633 11.4896 23.079 10.9976L25.3901 9.10457L26 8.59375L25.5827 7.90264L23.5284 4.59736L23.1111 3.90625L22.3086 4.14663L19.3235 5.10817C18.521 4.50346 17.6383 3.99639 16.6593 3.63582L16.0494 0.78125L15.8889 0H10.1111ZM11.7802 1.92308H14.2198L14.7333 4.41707L14.8617 4.98798L15.4395 5.16827C16.6071 5.51007 17.6664 6.08849 18.5531 6.85096L19.0025 7.24159L19.5802 7.0613L22.1802 6.21995L23.4 8.17308L21.3457 9.88582L20.8642 10.2464L21.0247 10.8173C21.1571 11.3657 21.2173 11.9253 21.2173 12.5C21.2173 13.0747 21.1571 13.6343 21.0247 14.1827L20.8963 14.7536L21.3457 15.1142L23.4 16.8269L22.1802 18.78L19.5802 17.9387L19.0025 17.7584L18.5531 18.149C17.6664 18.9115 16.6071 19.4899 15.4395 19.8317L14.8617 20.012L14.7333 20.5829L14.2198 23.0769H11.7802L11.2667 20.5829L11.1383 20.012L10.5605 19.8317C9.3929 19.4899 8.33364 18.9115 7.44691 18.149L6.99753 17.7584L6.41975 17.9387L3.81975 18.78L2.6 16.8269L4.65432 15.1142L5.1358 14.7536L4.97531 14.1827C4.8429 13.6343 4.78272 13.0747 4.78272 12.5C4.78272 11.9253 4.8429 11.3657 4.97531 10.8173L5.1358 10.2464L4.65432 9.88582L2.6 8.17308L3.81975 6.21995L6.41975 7.0613L6.99753 7.24159L7.44691 6.85096C8.33364 6.08849 9.3929 5.51007 10.5605 5.16827L11.1383 4.98798L11.2667 4.41707L11.7802 1.92308ZM13 7.69231C10.1753 7.69231 7.8642 9.85577 7.8642 12.5C7.8642 15.1442 10.1753 17.3077 13 17.3077C15.8247 17.3077 18.1358 15.1442 18.1358 12.5C18.1358 9.85577 15.8247 7.69231 13 7.69231ZM13 9.61538C14.7133 9.61538 16.0815 10.8962 16.0815 12.5C16.0815 14.1038 14.7133 15.3846 13 15.3846C11.2867 15.3846 9.91852 14.1038 9.91852 12.5C9.91852 10.8962 11.2867 9.61538 13 9.61538Z" fill="white"/>
</svg>
